<svg width="19" height="19" viewBox="0 0 19 19" fill="none" xmlns="http://www.w3.org/2000/svg">
<path d="M15.2868 16.625L10.3732 11.6375C9.98324 11.9542 9.53477 12.2049 9.02781 12.3896C8.52085 12.5743 7.9814 12.6667 7.40944 12.6667C5.99255 12.6667 4.7934 12.1686 3.81198 11.1724C2.83055 10.1762 2.33984 8.95903 2.33984 7.52083C2.33984 6.08264 2.83055 4.86545 3.81198 3.86927C4.7934 2.87309 5.99255 2.375 7.40944 2.375C8.82633 2.375 10.0255 2.87309 11.0069 3.86927C11.9883 4.86545 12.479 6.08264 12.479 7.52083C12.479 8.10139 12.388 8.64896 12.2061 9.16354C12.0241 9.67813 11.7771 10.1333 11.4651 10.5292L16.3787 15.5167L15.2868 16.625ZM7.40944 11.0833C8.38437 11.0833 9.21305 10.737 9.8955 10.0443C10.5779 9.35156 10.9192 8.51042 10.9192 7.52083C10.9192 6.53125 10.5779 5.6901 9.8955 4.9974C9.21305 4.30469 8.38437 3.95833 7.40944 3.95833C6.43452 3.95833 5.60584 4.30469 4.92339 4.9974C4.24094 5.6901 3.89972 6.53125 3.89972 7.52083C3.89972 8.51042 4.24094 9.35156 4.92339 10.0443C5.60584 10.737 6.43452 11.0833 7.40944 11.0833Z" fill="#FEF7FF"/>
</svg>
